<svg xmlns="http://www.w3.org/2000/svg" width="543" height="753"><path d="M267.754 35.25c-13.261 15.822-24.422 31.761-28.922 41.305-1.283 2.72-2.557 5.17-2.832 5.445-1.603 1.603-9.57 18.294-13.852 29.018-9.369 23.468-13.701 44.417-14.539 70.311L207.166 195h19.358c12.063 0 19.595.384 19.988 1.019 1.358 2.198 1.569 13.313.268 14.138-1.031.655-1.026.815.029.828.72.008 1.031.465.691 1.015-.379.613-8.344 1-20.559 1H207v156h47l.118 28.25c.066 15.538.066 28.587 0 29-.065.413 5.663.75 12.729.75h12.847l.649-11.25c.356-6.187.65-19.238.652-29L281 369h19.044c14.655 0 19.006-.288 18.881-1.25-.089-.687-.109-3.163-.043-5.5L319 358h10.271l-.617-46.25c-.339-25.437-.625-53.28-.635-61.872L328 234.256l-3.807-.609c-7.304-1.168-11.908-4.762-25.17-19.647l-12.918-14.5 2.414-2.259 2.413-2.259 11.782 12.111c6.48 6.662 12.998 12.741 14.484 13.51 3.196 1.652 12.498 1.84 16.487.333 9.457-3.573 14.924-16.757 10.921-26.336-.766-1.835-5.491-7.481-10.5-12.547-5.008-5.066-9.108-9.963-9.109-10.882-.013-6.011-2.439-26.136-4.061-33.671-5.945-27.634-25.544-74.074-40.859-96.816C276.12 34.808 272.719 30 272.519 30c-.201 0-2.345 2.362-4.765 5.25m-6.02 76.783c-9.986 2.499-19.467 10.518-24.226 20.489-3.754 7.868-4.601 19.638-1.986 27.611 6.701 20.43 27.007 31.153 47.313 24.986 3.868-1.175 8.388-3.277 10.046-4.672l3.014-2.537 1.765 2.693c.97 1.482 1.65 4.089 1.51 5.795-.226 2.748 1.008 4.358 10.805 14.102 10.836 10.778 11.151 11 15.624 11 3.927 0 4.989-.474 7.596-3.392 2.576-2.883 2.953-3.972 2.512-7.258-.433-3.226-2.308-5.786-11.315-15.443-10.032-10.757-11.007-11.534-13.769-10.982-2.196.44-3.547.055-5.172-1.471l-2.198-2.065 3.123-5.695c2.939-5.356 3.124-6.317 3.124-16.194 0-8.796-.367-11.297-2.264-15.408-3.482-7.55-10.248-14.785-17.409-18.617-5.667-3.031-7.266-3.411-15.327-3.634-4.95-.138-10.694.174-12.766.692m3.141 15.531c-11.638 3.583-18.553 19.034-13.623 30.436 3.323 7.687 8.601 10.003 18.24 8.002 10.257-2.13 18.264-10.638 21.197-22.526l1.62-6.562-3.361-3.468c-6.775-6.99-14.415-8.857-24.073-5.882m2.132 4.99C259.9 135.715 255 142.809 255 149.937c0 3.16.523 4.36 2.451 5.623 3.308 2.167 5.983 1.504 6.329-1.57.898-7.986 4.349-12.49 10.817-14.119 3.577-.901 4.403-1.532 4.403-3.367 0-4.486-6.198-6.528-11.993-3.95M134.288 215.25c-.527.688-1.77 4.334-2.762 8.104-2.548 9.68-6.512 13.628-16.989 16.922-7.607 2.392-10.252 4.237-7.37 5.141.733.23 3.934 1.196 7.113 2.147 7.383 2.208 12.87 7.361 15.151 14.229.918 2.764 2.209 11.023 2.869 18.353 1.021 11.339 1.462 13.378 2.953 13.665 2.187.42 2.185.43 4.238-15.311 2.676-20.506 7.661-28.077 21.052-31.969 3.075-.895 5.427-2.122 5.225-2.728-.202-.606-3.32-2.059-6.928-3.228s-8.229-3.239-10.27-4.6c-3.925-2.618-7.86-9.15-9.021-14.975-1.185-5.941-1.638-7-2.994-7-.721 0-1.741.563-2.267 1.25m272.264-.074c-.244.728-1.374 4.474-2.511 8.324-1.137 3.85-3.181 8.255-4.541 9.79-2.518 2.841-11.698 7.683-14.601 7.7-2.299.014-7.899 2.078-7.899 2.911 0 .388 3.069 1.694 6.819 2.902 15.076 4.855 18.985 11.929 21.937 39.697.647 6.084 1.005 7 2.743 7 1.82 0 2.148-1.215 3.641-13.5 1.777-14.618 3.485-20.508 7.453-25.711 2.601-3.41 8.115-6.491 14.407-8.049 4.296-1.064 4.547-3.374.5-4.602-15.276-4.633-18.922-8.051-22.542-21.138-1.076-3.888-2.241-6.114-3.312-6.324-.909-.178-1.851.272-2.094 1m-169.068 10.006c-.287.747-.4 12.149-.253 25.338l.269 23.98h13l.298-6.25.297-6.25 4.703.029c4.583.029 4.812.18 9.036 6l4.335 5.971h6.332c4.161 0 6.485.429 6.779 1.25.245.688.837.883 1.314.435.889-.834.229-2.183-5.617-11.478l-3.329-5.293 3.22-2.941c9.178-8.382 7.631-21.776-3.286-28.461-4.84-2.964-5.168-3.017-20.748-3.35-12.645-.27-15.934-.065-16.35 1.02M251 243.5v5.5h7.8c8.504 0 10.2-.839 10.2-5.045 0-4.444-2.749-5.955-10.829-5.955H251v5.5m-20.811 42.539c-2.766 2.577-2.801 6.098-.084 8.556 1.996 1.807 4.178 1.905 42.391 1.905 38.211 0 40.395-.098 42.395-1.905 2.656-2.399 2.702-6.002.109-8.595-1.934-1.934-3.333-2-42.311-2-39.186 0-40.373.057-42.5 2.039m.266 23.416c-3.071 3.071-3.113 5.578-.141 8.371 2.296 2.156 2.634 2.174 41.866 2.174 38.498 0 39.62-.055 42.185-2.073 3.291-2.588 3.349-5.304.18-8.472L312.091 307h-79.182l-2.454 2.455m1.045 21.74c-2.614 1.482-3.466 2.823-3.485 5.484-.037 5.345-.238 5.321 44.401 5.321 38.716 0 41.377-.113 42.929-1.829 2.225-2.459 2.087-5.739-.345-8.171-1.934-1.934-3.312-1.999-41.75-1.97-27.74.022-40.354.373-41.75 1.165M362.088 383l.002 41.5 9.554 10 9.554 10-.472-30c-.404-25.635-.776-31.337-2.554-39.187-2.916-12.865-7.599-24.147-12.202-29.388l-3.885-4.425.003 41.5m-184.65-35.793c-8.593 9.082-13.828 18.479-18.102 32.496-2.578 8.457-2.698 9.878-3.091 36.797-.226 15.4-.26 29.749-.077 31.887l.332 3.888 12.761-14.587 12.762-14.587-.262-40.094-.261-40.093-4.062 4.293M68.25 363.651c-.687.284-1.25 1.521-1.25 2.751 0 4.125-3.025 12.475-5.65 15.594-3.085 3.666-8.246 6.46-14.966 8.1-9.365 2.287-9.168 3.436 1.183 6.909 4.002 1.343 7.323 3.322 9.754 5.812 5.619 5.754 7.372 12.039 10.301 36.933.388 3.291.919 4.25 2.354 4.25 1.591 0 1.942-1.096 2.479-7.75.966-11.967 3.263-23.777 5.462-28.088 3.286-6.44 6.864-8.783 20.916-13.697 1.866-.652.894-2.901-1.416-3.278-6.303-1.029-12.87-3.646-15.964-6.362-4.473-3.928-6.298-7.447-7.877-15.194-1.216-5.962-2.332-7.216-5.326-5.98m403.459.973c-.39.39-.709 1.607-.709 2.705 0 8.174-7.344 19.558-13.605 21.09-8.558 2.093-13.467 3.865-13.171 4.753.183.549 3.639 2.285 7.68 3.857 8.422 3.276 10.902 5.29 13.892 11.277 2.498 5.003 3.649 10.361 5.268 24.522.818 7.16 1.616 10.496 2.601 10.874.782.3 1.627.339 1.879.087s1.132-5.37 1.955-11.374c2.756-20.104 4.988-26.481 10.742-30.676 3.179-2.318 8.924-4.972 13.566-6.267 4.399-1.226 2.054-3.697-5.411-5.7-11.397-3.059-16.606-8.503-18.917-19.772-.867-4.226-1.583-5.568-3.095-5.792-1.081-.161-2.285.027-2.675.416M208 403.963c0 8.522.143 9.155 2.25 9.946 2.799 1.051 3.269-.371 1.836-5.559-.721-2.61-.719-3.959.007-4.407.575-.356.902-2.401.726-4.545-.259-3.163-.743-3.958-2.569-4.218-2.192-.311-2.25-.084-2.25 8.783m7.667-6.296c-.367.366-.667 4.589-.667 9.383 0 8.194.135 8.753 2.25 9.32 1.238.331 2.588.609 3 .616.412.008.75-4.486.75-9.986 0-9.81-.044-10-2.333-10-1.284 0-2.634.3-3 .667M314 409.5c0 5.775.196 10.5.435 10.5s1.589-.439 3-.975c2.506-.953 2.565-1.196 2.565-10.5V399h-6v10.5m-63.935 65.125.065 17.875 3.35-10.365c4.367-13.514 5.947-15.188 4.843-5.135-.452 4.125-.812 14.475-.799 23 .021 13.698.351 16.765 2.836 26.383C263.486 538.477 270.724 558 272.084 558c2.28 0 9.444-19.973 12.554-35 1.895-9.158 2.519-35.9 1.116-47.855-.625-5.333-.513-6.266.699-5.801.852.327 1.681-.191 2.021-1.263.318-1 1.466-2.621 2.552-3.604 2.728-2.469 2.579-5.459-.276-5.544-1.238-.037-9.45-.2-18.25-.363-8.8-.163-17.463-.639-19.25-1.058l-3.25-.762.065 17.875M224.279 570c-13.015 34.352-7.769 71.944 14.737 105.593 4.756 7.112 27.242 31.341 30.988 33.391 1.308.716 1.457-.65 1.146-10.448l-.357-11.271 8.647-8.883c16.635-17.086 28.972-38.836 33.682-59.382 2.133-9.303 2.887-15.885 3.322-29 .378-11.402.305-12.373-.471-6.247-2.512 19.816-11.185 41.209-23.355 57.605C287.453 648.317 273.424 663 271.94 663c-1.056 0-14.363-14.394-19.386-20.97-9.592-12.554-17.885-30.11-21.744-46.03-1.202-4.954-2.322-13.923-2.686-21.5l-.624-13-3.221 8.5" fill="#fff" fill-rule="evenodd"/><path d="M263.887 7.75c-7.484 7.754-13.326 14.906-21.44 26.25-3.737 5.225-7.167 9.65-7.621 9.833-.454.184-.826.787-.826 1.341 0 .555-3.019 5.805-6.709 11.667-7.15 11.362-20.392 36.027-22.902 42.659-.832 2.2-2.898 8.05-4.589 13-1.692 4.95-3.499 9.538-4.015 10.195-.516.658-3.267 1.951-6.112 2.875-11.09 3.602-38.414 16.101-49.173 22.494-37.057 22.019-66.337 49.246-89.727 83.436-8.93 13.053-18.708 29.866-23.499 40.405a8578.18 8578.18 0 0 0-5.262 11.595c-.995 2.2-2.813 6.7-4.039 10-1.227 3.3-3.034 8.137-4.015 10.75-.982 2.613-1.628 4.75-1.435 4.75.192 0-.562 3.262-1.676 7.25-2.3 8.232-2.111 7.408-4.302 18.75-.904 4.675-1.889 9.625-2.19 11-.302 1.375-.676 4.525-.832 7-.155 2.475-.561 8.775-.902 14-1.25 19.198.447 54.879 3.243 68.154.503 2.39.926 5.021.94 5.846.013.825 1.24 5.775 2.726 11 1.485 5.225 2.794 9.95 2.908 10.5.877 4.227 6.248 19.044 10.463 28.866 10.718 24.98 28.333 52.606 47.193 74.015 26.954 30.596 50.747 49.14 84.982 66.232 7.036 3.513 12.991 6.387 13.234 6.387.243 0 3.085 1.208 6.316 2.683 3.231 1.476 9.222 3.873 13.314 5.327 8.04 2.857 7.838 2.649 11.149 11.49 2.922 7.804 14.42 31.157 16.001 32.499.324.276 2.799 3.803 5.5 7.838 2.7 4.036 5.36 8.009 5.91 8.829 1.34 1.997 5.439 6.833 14.75 17.4 4.262 4.838 7.75 9.277 7.75 9.865 0 .588.338 1.079.75 1.091.412.012 3.413 2.518 6.667 5.57 9.088 8.521 14.117 12.408 16.054 12.408 4.326 0 31.62-27.342 45.521-45.6 9.445-12.407 23.799-38.637 27.557-50.359.963-3.003 2.713-6.317 3.889-7.364 1.177-1.048 6.847-3.665 12.601-5.816 13.245-4.951 40.354-18.051 48.863-23.611 3.578-2.338 6.882-4.25 7.345-4.25.462 0 2.007-1.082 3.433-2.404 1.426-1.322 3.744-3.009 5.152-3.75 1.407-.74 4.159-2.806 6.114-4.591 1.955-1.785 3.837-3.248 4.182-3.25.949-.007 11.016-9.26 22.852-21.005 19.167-19.019 34.981-40.044 50.302-66.876 10.167-17.806 23.158-53.889 26.327-73.124a72.268 72.268 0 0 1 1.046-5c1.174-4.627 1.959-9.935 3.328-22.5 1.005-9.224 1.377-44.015.547-51.167a340.555 340.555 0 0 1-.962-9.833c-.221-2.75-.648-5.675-.95-6.5-.303-.825-.74-3.3-.974-5.5-.233-2.2-.902-5.8-1.486-8-.585-2.2-1.263-5.145-1.507-6.545-1.074-6.158-6.701-23.905-11.875-37.455-3.951-10.346-15.702-34.04-21.326-43-2.417-3.85-5.269-8.575-6.338-10.5-6.871-12.372-38.41-47.768-52.362-58.763-3.162-2.493-5.75-4.916-5.75-5.385 0-.468-.671-.852-1.492-.852-.82 0-2.053-.9-2.74-2-.687-1.1-1.793-2-2.459-2-.665 0-1.569-.562-2.009-1.25-.44-.687-1.7-1.782-2.8-2.432-1.1-.65-7.45-4.59-14.11-8.755-12.784-7.995-33.88-18.47-51.39-25.519-5.775-2.325-11.23-4.973-12.121-5.885-.892-.913-3.517-6.834-5.834-13.159-4.695-12.817-16.065-37.269-20.295-43.645-1.512-2.28-2.75-4.587-2.75-5.128 0-.54-.634-1.508-1.408-2.151-.774-.642-2.147-2.61-3.05-4.372-5.197-10.137-21.986-31.96-34.97-45.454-7.781-8.086-9.318-8.132-16.685-.5m1.951 28.618C237.793 69.105 216.519 112.783 209.519 152c-.933 5.225-1.942 17.263-2.244 26.75l-.548 17.25H246v16h-39v158h47v58h37v-58h48.159l-.253-75.378-.253-75.378 3.032-3.678c6.998-8.49 6.86-19.065-.36-27.499-3.226-3.769-3.369-4.293-3.751-13.744-1.357-33.613-16.14-76.765-37.437-109.285-3.048-4.653-10.063-14.096-15.589-20.983-5.527-6.886-10.531-13.145-11.122-13.907-.856-1.106-2.389.151-7.588 6.22m-2.951 76.083c-19.482 5.372-31.46 23.462-27.993 42.278 2.661 14.44 10.753 24.267 24.228 29.424 9.826 3.76 24.781 2.024 32.561-3.779 1.751-1.306 3.46-2.374 3.798-2.374.338 0 1.665 1.221 2.949 2.713 1.946 2.263 2.154 3.106 1.253 5.084-1.001 2.195-.227 3.215 10.453 13.787C320.533 209.876 322.022 211 325.258 211c5.435 0 9.742-4.037 9.742-9.132 0-4.246-1.308-5.983-15.847-21.038-5.746-5.951-6.703-6.572-8.862-5.75-3.183 1.21-2.861 1.333-5.235-2.002-2.08-2.92-2.08-2.924-.108-6.266 1.086-1.839 2.717-6.246 3.625-9.792 6.847-26.726-18.99-51.931-45.686-44.569m5.439 13.563c-5.876 1.205-9.428 3.25-13.53 7.791-4.605 5.097-6.113 9.874-5.61 17.773.514 8.078 4.136 13.683 11.189 17.312 16.63 8.558 34.625-2.027 34.625-20.367 0-14.596-12.757-25.361-26.674-22.509m-3.536 8.033c-3.985 2.105-8.347 8.489-9.401 13.76-.829 4.141 1.711 8.193 5.134 8.193 2.032 0 2.48-.495 2.493-2.75.031-5.099 4.018-10.528 9.73-13.25 5.228-2.491 6.399-4.455 4.054-6.8-1.794-1.794-7.812-1.369-12.01.847m-95.29 30.837c-12.905 6.195-25.991 14.118-39.336 23.816-11.667 8.479-37.251 33.239-46.528 45.03-22.382 28.445-39.143 61.606-47.102 93.192-9.668 38.367-9.322 83.724.93 121.8 7.958 29.561 25.335 63.765 39.654 78.053 7.312 7.297 14.127 10.454 23.772 11.012 8.687.503 5.741 1.391 51.61-15.551 26.502-9.789 36.248-12.82 38.649-12.02.678.226-1.774 3.548-5.602 7.588-17.344 18.305-27.577 37.364-26.089 48.591 1.744 13.155 9.42 18.855 21.958 16.307l5.916-1.202 2.337-9.319c5.596-22.305 18.768-47.855 33.372-64.728l3.959-4.575-.005-27.689-.004-27.689-8.64-2.748-8.64-2.748-5.195 4.438c-14.534 12.417-40.126 40.31-53.987 58.842-3.203 4.282-6.313 7.621-6.913 7.421-2.489-.829-9.697-32.868-11.969-53.205-1.959-17.529-2.059-61.494-.168-73.871 3.503-22.927 11.164-41.718 23.903-58.629 6.005-7.971 16.762-19.09 22.771-23.537l2.653-1.963.265-33c.421-52.427-.004-108.504-.821-108.458-.412.023-5.25 2.201-10.75 4.842m193.538 65.799.038 70.817 4.523 3.5c7.325 5.668 20.086 19.451 24.902 26.895 8.938 13.818 15.281 29.002 19.048 45.605 1.126 4.96 1.747 14.579 2.133 33 .783 37.335-1.349 60.514-8.092 87.997-1.845 7.517-3.81 14.123-4.367 14.68-.685.685-2.421-.882-5.352-4.831-15.622-21.053-32.627-39.767-52.138-57.38l-10.767-9.72-5.733 2.245c-3.153 1.234-6.521 2.514-7.483 2.845-1.611.553-1.75 2.838-1.75 28.768v28.166l6.345 8.615c10.075 13.678 12.516 17.58 18.347 29.325 4.783 9.633 12.192 30.049 13.762 37.921.614 3.079 2.703 3.836 10.648 3.855 12.241.03 19.493-10.301 16.885-24.055-2.046-10.788-9.808-23.451-24.476-39.931-6.07-6.819-7.195-8.559-5.692-8.799 2.433-.389 13.8 3.409 45.302 15.138 31.008 11.545 36.35 13.03 44.565 12.386 8.566-.671 14.596-3.873 22.891-12.157 17.423-17.4 32.688-48.348 41.325-83.781 4.913-20.158 6.275-32.032 6.395-55.787.126-24.703-1.39-37.771-6.786-58.5-4.938-18.972-8.696-29.068-17.496-47-21.355-43.518-55.202-80.422-96.515-105.228-10.344-6.21-24.318-13.486-28.25-14.708l-2.25-.699.038 70.818M238 249.414V274h12v-12h10.859l4.365 5.75 4.365 5.75 6.706.296c3.688.162 6.705.018 6.705-.32 0-.339-1.287-2.497-2.859-4.796-1.573-2.299-3.595-5.614-4.493-7.367-1.614-3.149-1.6-3.211 1.236-5.23 8.916-6.349 7.801-21.289-2.077-27.832-4.039-2.675-4.606-2.76-20.481-3.087L238 224.828v24.586m12.667-11.747c-.367.366-.667 3.291-.667 6.5V250h8c6.667 0 8.333-.333 10-2 2.675-2.675 2.521-5.57-.455-8.545-2.13-2.131-3.363-2.455-9.333-2.455-3.783 0-7.179.3-7.545.667M87.246 273.25c-.55.688-1.312 3.837-1.695 7l-.695 5.75h-4.705c-5.384 0-9.151 2.139-9.151 5.196 0 3.218 2.946 4.737 9.25 4.772L86 296v5.3c0 5.77 1.169 7.7 4.665 7.7 2.928 0 4.335-2.737 4.335-8.434V296h4.277c5.074 0 8.723-2.241 8.723-5.357 0-3.473-1.939-4.643-7.7-4.643H95v-5.8c0-3.19-.54-6.34-1.2-7-1.566-1.566-5.285-1.538-6.554.05m362.954-.05c-.66.66-1.2 3.81-1.2 7v5.8h-5.345c-3.908 0-5.79.492-7 1.829-3.935 4.348-.812 8.171 6.674 8.171h5.185l-.362 4.555c-.409 5.148 1.661 8.445 5.303 8.445 3.374 0 4.545-1.984 4.545-7.7V296h5.5c4.167 0 5.985-.485 7.5-2 1.1-1.1 2-2.45 2-3 0-.55-.9-1.9-2-3-1.515-1.515-3.333-2-7.5-2H458v-5.8c0-6.172-1.113-8.2-4.5-8.2-1.155 0-2.64.54-3.3 1.2m-216.472 11.619c-3.686.423-6.282 4.277-4.776 7.091.602 1.124 1.954 2.504 3.005 3.067 1.209.647 16.191 1.023 40.755 1.023 33.537 0 39.147-.213 41.065-1.557 2.744-1.921 3.029-6.942.473-8.308-1.608-.858-74.18-2.045-80.522-1.316m-3.073 25.01c-2.171 2.399-2.1 5.458.174 7.516 1.637 1.482 6.018 1.655 41.928 1.655 35.121 0 40.295-.195 41.672-1.571 2.107-2.108 1.987-5.743-.258-7.774-1.637-1.482-6.013-1.655-41.845-1.655-37.497 0-40.12.115-41.671 1.829m-1.098 23.443c-1.946 2.971-.94 6.632 2.145 7.805 1.335.508 19.969.923 41.409.923h38.98l2.444-2.444c2.416-2.416 2.465-4.362.187-7.306-.746-.964-10.42-1.25-42.321-1.25h-41.355l-1.489 2.272M362 382.798v41.879l12.539 13.412c6.896 7.376 13.011 13.574 13.589 13.774.727.251.916-8.871.611-29.5-.392-26.598-.68-30.792-2.633-38.363-3.81-14.766-13.22-32.396-21.772-40.79L362 340.919v41.879m-184.775-36.427c-5.916 6.419-11.486 15.302-15.223 24.279-5.538 13.302-6.06 18.013-5.766 52.025l.264 30.665 7.467-8.92c4.106-4.906 9.849-11.441 12.761-14.522l5.294-5.602-.261-41.282-.261-41.281-4.275 4.638M329 395.659c-4.675 1.188-9.962 2.2-11.75 2.25L314 398v11c0 8.469.305 11 1.326 11 1.708 0 21.577-5.569 22.242-6.235.278-.277.376-4.951.218-10.385l-.286-9.88-8.5 2.159m-122 8.27v9.929l5.75 1.681c6.591 1.927 16.132 4.461 16.799 4.461.248 0 .451-4.95.451-11v-11l-2.75-.017c-1.512-.01-6.125-.902-10.25-1.983s-8.062-1.973-8.75-1.983c-.917-.012-1.25 2.626-1.25 9.912m42.394 53.488c-.292.76-.364 23.364-.16 50.232l.37 48.851 2.666 10c2.959 11.095 10.896 27.823 16.133 33.998l3.391 3.998 2.162-1.956c5.798-5.247 13.673-21.081 18.141-36.477 3.98-13.71 4.659-42.451 2.249-95.063l-.619-13.5h-18.614c-10.237 0-20.093-.33-21.901-.733-2.399-.534-3.432-.358-3.818.65m-24.45 109.333c-5.789 13.836-7.097 20.306-7.635 37.75-.413 13.412-.172 17.556 1.493 25.621 3.708 17.965 13.461 38.564 25.253 53.335 6.639 8.316 26.394 27.544 28.299 27.544 1.407 0 19.979-18.424 26.208-26 9.819-11.942 17.612-26.333 22.931-42.349 4.571-13.763 5.893-23.998 5.237-40.537-.573-14.433-2.889-24.791-8.097-36.203l-2.469-5.411-.082 10.14c-.267 33.041-15.218 65.538-40.86 88.811l-3.252 2.951-5.55-5.451c-13.257-13.019-22.809-27.271-29.59-44.146-5.709-14.211-8.031-25.845-8.194-41.05-.075-7.01-.207-12.747-.293-12.75-.086-.003-1.616 3.482-3.399 7.745" fill="#041d45" fill-rule="evenodd"/><path d="M269.437 32.25 266.5 35.5l3.069-2.764c1.688-1.52 3.448-2.42 3.911-2 .462.42.517.202.121-.486-.95-1.651-.799-1.723-4.164 2m7.328 3.514c.954 1.52 3.681 5.594 6.058 9.053 8.483 12.341 26.827 53.45 33.548 75.183 4.674 15.112 8.6 38.423 8.626 51.214.001.942 3.491 5.182 7.753 9.42 4.262 4.239 8.762 9.068 10 10.731 1.238 1.663 2.25 2.567 2.25 2.009 0-.558-1.581-2.862-3.514-5.12-3.416-3.99-3.526-4.383-3.912-13.931-1.369-33.903-16.375-77.455-37.839-109.823-5.516-8.318-23.407-31.5-24.311-31.5-.217 0 .386 1.244 1.341 2.764m-12.901 2.986c-3.456 3.785-9.136 11.25-8.561 11.25.26 0 3.017-3.15 6.127-7 5.773-7.145 6.945-9.192 2.434-4.25M252 54c-1.175 1.65-1.911 3-1.636 3 .275 0 1.461-1.35 2.636-3s1.911-3 1.636-3c-.275 0-1.461 1.35-2.636 3m-7.308 10.75c-3.583 5.76-3.845 6.25-3.337 6.25.26 0 1.858-2.25 3.55-5 1.692-2.75 2.861-5 2.598-5-.263 0-1.528 1.688-2.811 3.75m-6.976 11.5c-3.693 6.346-10.89 20.909-10.516 21.283.179.179 2.12-3.13 4.313-7.353 2.193-4.224 4.212-7.905 4.487-8.18.799-.799 5.015-10 4.582-10-.216 0-1.505 1.912-2.866 4.25m-15.554 32.293c-1.675 3.677-1.355 4.462.456 1.119.846-1.562 1.351-3.026 1.123-3.255-.229-.228-.939.733-1.579 2.136m-3.051 7.568c-.616 1.767-.945 3.388-.731 3.602.214.214.893-1.057 1.509-2.824.616-1.767.945-3.388.731-3.602-.214-.214-.893 1.057-1.509 2.824M295 118.313c0 .172 1.462 1.635 3.25 3.25l3.25 2.937-2.937-3.25c-2.738-3.029-3.563-3.71-3.563-2.937m-50.563 3.937-2.937 3.25 3.25-2.937c1.787-1.615 3.25-3.078 3.25-3.25 0-.773-.825-.092-3.563 2.937m9.785 12.014c-2.418 2.574-5.238 8.798-5.189 11.454.018.98.854-.596 1.858-3.502 1.004-2.907 2.867-6.394 4.141-7.75 1.274-1.356 2.092-2.466 1.817-2.466-.275 0-1.457 1.019-2.627 2.264m22.528-1.266c2.072 2.324 1.475 4.908-1.297 5.603-1.4.352-2.353.832-2.118 1.068.236.235 1.607.133 3.047-.229 3.111-.781 3.6-4.452.868-6.519-1.489-1.127-1.563-1.115-.5.077m13.948 10.443c-2.98 12.073-11.103 20.539-21.736 22.65-10.405 2.066-16.354-1.584-18.913-11.604l-1.018-3.987.46 3.984c1.045 9.058 10.347 16.515 21.619 17.33 13.456.974 24.046-9.562 23.814-23.69-.042-2.543-.633-6.165-1.314-8.048l-1.237-3.423-1.675 6.788m-27.562 9.239c-.105 2.448-.654 3.281-2.386 3.614l-2.25.434 2.281.136c2.568.153 3.59-1.603 2.934-5.041-.344-1.807-.473-1.617-.579.857M208.232 162c0 1.925.206 2.713.457 1.75.252-.963.252-2.537 0-3.5-.251-.963-.457-.175-.457 1.75m-38.732 2.884c-12.905 6.195-25.991 14.118-39.336 23.816-11.667 8.479-37.251 33.239-46.528 45.03-22.382 28.445-39.143 61.606-47.102 93.192-9.668 38.367-9.322 83.724.93 121.8 7.958 29.561 25.335 63.765 39.654 78.053 7.312 7.297 14.127 10.454 23.772 11.012 8.687.503 5.741 1.391 51.61-15.551 26.502-9.789 36.248-12.82 38.649-12.02.678.226-1.774 3.548-5.602 7.588-17.344 18.305-27.577 37.364-26.089 48.591 1.744 13.155 9.42 18.855 21.958 16.307l5.916-1.202 2.337-9.319c5.596-22.305 18.768-47.855 33.372-64.728l3.959-4.575-.005-27.689-.004-27.689-8.64-2.748-8.64-2.748-5.195 4.438c-14.534 12.417-40.126 40.31-53.987 58.842-3.203 4.282-6.313 7.621-6.913 7.421-2.489-.829-9.697-32.868-11.969-53.205-1.959-17.529-2.059-61.494-.168-73.871 3.503-22.927 11.164-41.718 23.903-58.629 6.005-7.971 16.762-19.09 22.771-23.537l2.653-1.963.265-33c.421-52.427-.004-108.504-.821-108.458-.412.023-5.25 2.201-10.75 4.842m193.538 65.799.038 70.817 4.523 3.5c7.325 5.668 20.086 19.451 24.902 26.895 8.938 13.818 15.281 29.002 19.048 45.605 1.126 4.96 1.747 14.579 2.133 33 .783 37.335-1.349 60.514-8.092 87.997-1.845 7.517-3.81 14.123-4.367 14.68-.685.685-2.421-.882-5.352-4.831-15.622-21.053-32.627-39.767-52.138-57.38l-10.767-9.72-5.733 2.245c-3.153 1.234-6.521 2.514-7.483 2.845-1.611.553-1.75 2.838-1.75 28.768v28.166l6.345 8.615c10.075 13.678 12.516 17.58 18.347 29.325 4.783 9.633 12.192 30.049 13.762 37.921.614 3.079 2.703 3.836 10.648 3.855 12.241.03 19.493-10.301 16.885-24.055-2.046-10.788-9.808-23.451-24.476-39.931-6.07-6.819-7.195-8.559-5.692-8.799 2.433-.389 13.8 3.409 45.302 15.138 31.008 11.545 36.35 13.03 44.565 12.386 8.566-.671 14.596-3.873 22.891-12.157 17.423-17.4 32.688-48.348 41.325-83.781 4.913-20.158 6.275-32.032 6.395-55.787.126-24.703-1.39-37.771-6.786-58.5-4.938-18.972-8.696-29.068-17.496-47-21.355-43.518-55.202-80.422-96.515-105.228-10.344-6.21-24.318-13.486-28.25-14.708l-2.25-.699.038 70.818M207.328 174.5c.005 3.85.185 5.302.402 3.228.216-2.075.213-5.225-.008-7-.221-1.776-.398-.078-.394 3.772m110.672 5c2.987 3.025 5.657 5.5 5.932 5.5.275 0-1.945-2.475-4.932-5.5s-5.657-5.5-5.932-5.5c-.275 0 1.945 2.475 4.932 5.5m-26.5 1.125c-1.798 1.53-2.166 2.138-.918 1.518 1.833-.91 5.271-4.202 4.29-4.107-.204.02-1.722 1.185-3.372 2.589m-18.738 6.082c1.244.239 3.044.23 4-.02s-.062-.446-2.262-.435c-2.2.011-2.982.216-1.738.455m57.288 5.846c2.447 2.779 4.653 4.9 4.902 4.715.248-.186-1.754-2.46-4.45-5.053L325.6 187.5l4.45 5.053m-20.339 7.424c6.166 6.289 11.341 11.229 11.5 10.979.159-.251-4.886-5.396-11.211-11.434l-11.5-10.979 11.211 11.434m-83.461-4.228 19.75.293v6.979c0 4.167.419 6.979 1.041 6.979 1.101 0 .649-12.074-.523-13.971-.409-.662-7.659-.948-20.327-.801l-19.691.227 19.75.294m62.056 1.561-2.195 2.19 12.916 14.5c13.258 14.886 17.861 18.479 25.166 19.647l3.807.609.019 15.622c.01 8.592.296 36.435.635 61.872l.617 46.25H319l-.118 4.25c-.066 2.337-.046 4.813.043 5.5.125.962-4.226 1.25-18.881 1.25H281l-.005 17.75c-.002 9.762-.295 22.8-.651 28.972l-.646 11.222-13.099.31c-11.238.265-10.435.34 5.651.528L291 428v-58h48.159l-.253-75.5-.254-75.501 2.415-2.749c1.934-2.204 1.721-2.117-1.076.439-1.92 1.753-4.758 3.666-6.306 4.25-3.992 1.505-13.293 1.315-16.487-.336-1.486-.769-8-6.844-14.475-13.5-6.475-6.657-11.874-12.076-11.998-12.043-.124.034-1.212 1.046-2.419 2.25m57.966 4.69c0 2.475.195 3.488.434 2.25.238-1.238.238-3.262 0-4.5-.239-1.238-.434-.225-.434 2.25m-11.04 0c0 1.925.206 2.713.457 1.75.252-.963.252-2.537 0-3.5-.251-.963-.457-.175-.457 1.75m-3.538 6.532c-1.543 1.357-2.409 2.468-1.924 2.468.485 0 1.938-1.125 3.23-2.5 2.989-3.181 2.328-3.165-1.306.032M226.5 212l-20 .564 20.191.218c12.623.136 20.423-.157 20.809-.782.34-.55.254-.902-.191-.782s-9.809.472-20.809.782m-92.212 3.25c-.527.688-1.77 4.334-2.762 8.104-2.548 9.68-6.512 13.628-16.989 16.922-7.607 2.392-10.252 4.237-7.37 5.141.733.23 3.934 1.196 7.113 2.147 7.383 2.208 12.87 7.361 15.151 14.229.918 2.764 2.209 11.023 2.869 18.353 1.021 11.339 1.462 13.378 2.953 13.665 2.187.42 2.185.43 4.238-15.311 2.676-20.506 7.661-28.077 21.052-31.969 3.075-.895 5.427-2.122 5.225-2.728-.202-.606-3.32-2.059-6.928-3.228s-8.229-3.239-10.27-4.6c-3.925-2.618-7.86-9.15-9.021-14.975-1.185-5.941-1.638-7-2.994-7-.721 0-1.741.563-2.267 1.25m272.264-.074c-.244.728-1.374 4.474-2.511 8.324-1.137 3.85-3.181 8.255-4.541 9.79-2.518 2.841-11.698 7.683-14.601 7.7-2.299.014-7.899 2.078-7.899 2.911 0 .388 3.069 1.694 6.819 2.902 15.076 4.855 18.985 11.929 21.937 39.697.647 6.084 1.005 7 2.743 7 1.82 0 2.148-1.215 3.641-13.5 1.777-14.618 3.485-20.508 7.453-25.711 2.601-3.41 8.115-6.491 14.407-8.049 4.296-1.064 4.547-3.374.5-4.602-15.276-4.633-18.922-8.051-22.542-21.138-1.076-3.888-2.241-6.114-3.312-6.324-.909-.178-1.851.272-2.094 1M237.45 225.27c-.268.698-.366 12.061-.219 25.25l.269 23.98h13l.071-6 .072-6-.369 5.75-.369 5.75H238v-48.947l14.75-.305 14.75-.306-14.781-.221c-11.191-.167-14.9.087-15.269 1.049m41.929 7.146c1.441 2.125 2.621 4.325 2.621 4.89 0 .565.258.769.574.454.771-.772-2.026-6.06-4.129-7.806-.928-.77-.508.338.934 2.462m-28.712 5.251c-.367.366-.667 3.291-.667 6.5V250l8.25-.201 8.25-.201-7.75-.341-7.75-.341v-10.828l7.25-.345 7.25-.346-7.083-.198c-3.896-.11-7.384.101-7.75.468M283.272 243c0 2.475.195 3.488.434 2.25.238-1.238.238-3.262 0-4.5-.239-1.238-.434-.225-.434 2.25M87.246 273.25c-.55.688-1.312 3.837-1.695 7l-.695 5.75h-4.705c-5.384 0-9.151 2.139-9.151 5.196 0 3.218 2.946 4.737 9.25 4.772L86 296v5.3c0 5.77 1.169 7.7 4.665 7.7 2.928 0 4.335-2.737 4.335-8.434V296h4.277c5.074 0 8.723-2.241 8.723-5.357 0-3.473-1.939-4.643-7.7-4.643H95v-5.8c0-3.19-.54-6.34-1.2-7-1.566-1.566-5.285-1.538-6.554.05m362.954-.05c-.66.66-1.2 3.81-1.2 7v5.8h-5.345c-3.908 0-5.79.492-7 1.829-3.935 4.348-.812 8.171 6.674 8.171h5.185l-.362 4.555c-.409 5.148 1.661 8.445 5.303 8.445 3.374 0 4.545-1.984 4.545-7.7V296h5.5c4.167 0 5.985-.485 7.5-2 1.1-1.1 2-2.45 2-3 0-.55-.9-1.9-2-3-1.515-1.515-3.333-2-7.5-2H458v-5.8c0-6.172-1.113-8.2-4.5-8.2-1.155 0-2.64.54-3.3 1.2M279 284.974c18.975.289 35.175.897 36 1.35.825.453.626.116-.441-.75-1.694-1.374-6.279-1.545-36-1.35l-34.059.225 34.5.525m37.136 5.219c-.077 1.536-1.091 3.363-2.359 4.25-1.222.856-1.742 1.557-1.154 1.557 2.019 0 4.544-3.803 4.094-6.168-.409-2.143-.456-2.114-.581.361M228 291.881c0 .975 3.888 4.613 4.307 4.03.162-.226-.741-1.407-2.006-2.625-1.266-1.218-2.301-1.85-2.301-1.405m35.25 4.867c8.663.167 22.837.167 31.5 0 8.663-.166 1.575-.303-15.75-.303s-24.412.137-15.75.303m-11.067 11.001c10.826.161 28.826.161 40 0 11.175-.161 2.317-.293-19.683-.293-22-.001-31.142.131-20.317.293m-24.067 5.827c-.064 1.141.931 3.059 2.211 4.261 2.323 2.183 2.39 2.186 42.25 1.913l39.923-.274-40.095-.238c-36.749-.218-40.225-.384-41.647-1.988-.853-.962-1.771-2.65-2.039-3.75-.472-1.939-.491-1.936-.603.076m24.634 17.173c11.138.161 29.363.161 40.5 0s2.025-.293-20.25-.293-31.387.132-20.25.293m61.536 8.95c-1.218 1.266-1.85 2.301-1.405 2.301.975 0 4.613-3.888 4.03-4.307-.226-.162-1.407.741-2.625 2.006m-136.833 6.551-3.953 4.25 4.25-3.953c3.952-3.676 4.71-4.547 3.953-4.547-.163 0-2.076 1.913-4.25 4.25m191.228 2.698c2.329 3.07 7.417 17.204 9.466 26.293 1.764 7.821 2.186 14.027 2.72 39.946l.633 30.687 2.937 3.063c1.615 1.685 3.343 3.063 3.839 3.063.525 0 .718-12.418.462-29.75-.391-26.452-.682-30.692-2.627-38.25-2.536-9.853-11.57-29.108-15.744-33.555-1.577-1.68-2.335-2.354-1.686-1.497M68.25 363.651c-.687.284-1.25 1.521-1.25 2.751 0 4.125-3.025 12.475-5.65 15.594-3.085 3.666-8.246 6.46-14.966 8.1-9.365 2.287-9.168 3.436 1.183 6.909 4.002 1.343 7.323 3.322 9.754 5.812 5.619 5.754 7.372 12.039 10.301 36.933.388 3.291.919 4.25 2.354 4.25 1.591 0 1.942-1.096 2.479-7.75.966-11.967 3.263-23.777 5.462-28.088 3.286-6.44 6.864-8.783 20.916-13.697 1.866-.652.894-2.901-1.416-3.278-6.303-1.029-12.87-3.646-15.964-6.362-4.473-3.928-6.298-7.447-7.877-15.194-1.216-5.962-2.332-7.216-5.326-5.98m403.459.973c-.39.39-.709 1.607-.709 2.705 0 8.174-7.344 19.558-13.605 21.09-8.558 2.093-13.467 3.865-13.171 4.753.183.549 3.639 2.285 7.68 3.857 8.422 3.276 10.902 5.29 13.892 11.277 2.498 5.003 3.649 10.361 5.268 24.522.818 7.16 1.616 10.496 2.601 10.874.782.3 1.627.339 1.879.087s1.132-5.37 1.955-11.374c2.756-20.104 4.988-26.481 10.742-30.676 3.179-2.318 8.924-4.972 13.566-6.267 4.399-1.226 2.054-3.697-5.411-5.7-11.397-3.059-16.606-8.503-18.917-19.772-.867-4.226-1.583-5.568-3.095-5.792-1.081-.161-2.285.027-2.675.416m-252.902 5.123c6.769.174 17.569.173 24-.001 6.431-.174.893-.315-12.307-.315-13.2.001-18.462.143-11.693.316m111.693 25.41c-3.85 1.037-9.25 2.273-12 2.747-4.089.705-4.396.883-1.684.979l3.317.117-.317 10.048-.316 10.048 2.5-.605c1.375-.333 5.538-1.499 9.25-2.591l6.75-1.985v-10.457c0-5.752-.113-10.397-.25-10.322-.137.074-3.4.984-7.25 2.021M207 403.893c0 10.084.459 11.254 4.332 11.044.642-.035.156-.471-1.082-.968-2.099-.844-2.25-1.507-2.25-9.863 0-7.692.248-9.024 1.75-9.417 1.317-.344 1.193-.486-.5-.573-2.19-.113-2.25.15-2.25 9.777m5.834-4.834c.219 2.299-.037 4.463-.571 4.81-1.128.734.706 12.131 1.952 12.131.432 0 .785-4.065.785-9.032 0-8.432.149-9.093 2.25-9.937 1.302-.523 1.618-.937.75-.981-.825-.043-2.414-.323-3.532-.623-1.847-.497-1.996-.166-1.634 3.632m8.166 7.834c0 7.383-.337 10.125-1.25 10.174-1.155.063 7.814 2.79 9.5 2.889.412.024.75-4.906.75-10.956v-11h-2.918c-1.605 0-3.63-.273-4.5-.607-1.378-.529-1.582.695-1.582 9.5m-42.563 20.357-2.937 3.25 3.25-2.937c3.029-2.738 3.71-3.563 2.937-3.563-.172 0-1.635 1.462-3.25 3.25m191.521 6c2.452 2.613 4.59 4.75 4.75 4.75.751 0-.043-.898-4.458-5.042l-4.75-4.458 4.458 4.75M249.4 457.399c-.295.77-.37 23.382-.166 50.25l.37 48.851 2.666 10c2.959 11.095 10.896 27.823 16.133 33.998l3.391 3.998 2.162-1.956c5.798-5.247 13.673-21.081 18.141-36.477 3.986-13.733 4.661-42.481 2.236-95.313l-.631-13.75h-3.41c-2.019 0-3.158.408-2.792 1 .34.55 1.716 1 3.059 1 3.05 0 3.298 2.914.467 5.477-1.086.983-2.234 2.604-2.552 3.604-.34 1.072-1.169 1.59-2.021 1.263-1.212-.465-1.324.468-.699 5.801 1.403 11.955.779 38.697-1.116 47.855-3.11 15.027-10.274 35-12.554 35-1.36 0-8.598-19.523-11.724-31.617-2.485-9.618-2.815-12.685-2.836-26.383-.013-8.525.347-18.875.799-23 1.104-10.053-.476-8.379-4.843 5.135l-3.35 10.365-.065-17.667c-.049-13.247.248-17.792 1.185-18.171.979-.395.972-.521-.031-.583-.705-.043-1.523.551-1.819 1.32m18.35 1.338c2.887.202 7.613.202 10.5 0 2.887-.202.525-.367-5.25-.367s-8.137.165-5.25.367M316.47 578c.419 22.788-1.114 35.274-6.334 51.584-4.896 15.301-17.335 35.075-30.696 48.798l-8.647 8.883.357 11.274c.21 6.604-.018 11.043-.55 10.714-.5-.309-.588-.042-.195.592.392.635 1.29 1.155 1.994 1.155 1.373 0 20.032-18.543 26.163-26 9.819-11.942 17.612-26.333 22.931-42.349 4.571-13.763 5.893-23.998 5.237-40.537-.573-14.445-2.897-24.826-8.105-36.203l-2.476-5.411.321 17.5m-99.238 42c0 1.925.206 2.712.457 1.75.252-.962.252-2.538 0-3.5-.251-.962-.457-.175-.457 1.75m86.93.543c-1.675 3.677-1.355 4.462.456 1.119.846-1.562 1.351-3.026 1.123-3.255-.229-.228-.939.733-1.579 2.136m-17.128 26.707c-2.977 3.438-4.157 5.125-2.623 3.75 2.779-2.492 9.083-10 8.395-10-.198 0-2.796 2.813-5.772 6.25m-21.289 9.746 6.246 6.475 3.254-3.463 3.255-3.462-3.266 2.929-3.266 2.93-6.234-5.942-6.234-5.941 6.245 6.474m-37.745.377c0 1.08 3.972 8.627 4.541 8.627.275 0-.465-1.913-1.644-4.25-2.318-4.597-2.897-5.472-2.897-4.377m9.693 17.704c.994 1.692 2.446 3.605 3.227 4.25.781.645.159-.74-1.383-3.077-3.237-4.908-4.513-5.72-1.844-1.173M256.5 697c6.031 6.05 11.191 11 11.466 11 .275 0-4.435-4.95-10.466-11s-11.191-11-11.466-11c-.275 0 4.435 4.95 10.466 11" fill="#d2e7f3" fill-rule="evenodd"/></svg>